<svg width="40" height="41" viewBox="0 0 40 41" fill="none" xmlns="http://www.w3.org/2000/svg">
<path d="M17.3443 31.0174L6.6665 20.2841L17.3443 9.55075C17.4407 9.42411 17.5632 9.31967 17.7035 9.2445C17.8438 9.16933 17.9987 9.12518 18.1575 9.11505C18.3164 9.10491 18.4755 9.12903 18.6243 9.18576C18.773 9.24249 18.9078 9.33051 19.0195 9.44386C19.1313 9.55722 19.2174 9.69326 19.272 9.84277C19.3266 9.99229 19.3484 10.1518 19.336 10.3105C19.3236 10.4692 19.2772 10.6233 19.2001 10.7626C19.1229 10.9018 19.0167 11.0228 18.8887 11.1174L10.8998 19.173L32.1554 19.173C32.4501 19.173 32.7327 19.29 32.9411 19.4984C33.1494 19.7068 33.2665 19.9894 33.2665 20.2841C33.2665 20.5788 33.1494 20.8614 32.9411 21.0698C32.7327 21.2781 32.4501 21.3952 32.1554 21.3952L10.8998 21.3952L18.8887 29.4507C19.0965 29.66 19.2126 29.9432 19.2116 30.238C19.2105 30.5329 19.0924 30.8152 18.8832 31.023C18.6739 31.2307 18.3908 31.3469 18.0959 31.3458C17.8011 31.3448 17.5187 31.2266 17.3109 31.0174L17.3443 31.0174Z" fill="#1F190D"/>
</svg>
