<svg width="41" height="41" viewBox="0 0 41 41" fill="none" xmlns="http://www.w3.org/2000/svg">
<g clip-path="url(#clip0_2009_99)">
<path d="M31.0174 17.6287L20.2841 6.95093L9.55075 17.6287C9.42411 17.7251 9.31967 17.8477 9.2445 17.988C9.16933 18.1283 9.12518 18.2831 9.11505 18.4419C9.10491 18.6008 9.12903 18.76 9.18576 18.9087C9.24249 19.0574 9.33051 19.1922 9.44386 19.304C9.55722 19.4157 9.69326 19.5018 9.84277 19.5564C9.99229 19.611 10.1518 19.6328 10.3105 19.6204C10.4692 19.608 10.6233 19.5617 10.7626 19.4845C10.9018 19.4073 11.0228 19.3012 11.1174 19.1731L19.173 11.1843V32.4398C19.173 32.7345 19.29 33.0171 19.4984 33.2255C19.7068 33.4339 19.9894 33.5509 20.2841 33.5509C20.5788 33.5509 20.8614 33.4339 21.0698 33.2255C21.2781 33.0171 21.3952 32.7345 21.3952 32.4398V11.1843L29.4507 19.1731C29.66 19.3809 29.9432 19.497 30.238 19.496C30.5329 19.4949 30.8152 19.3768 31.023 19.1676C31.2307 18.9584 31.3469 18.6752 31.3458 18.3803C31.3448 18.0855 31.2266 17.8031 31.0174 17.5954V17.6287Z" fill="white"/>
</g>
<defs>
<clipPath id="clip0_2009_99">
<rect width="40" height="40" fill="white" transform="translate(0.28418 0.28418)"/>
</clipPath>
</defs>
</svg>
