<svg width="18" height="18" viewBox="0 0 18 18" fill="none" xmlns="http://www.w3.org/2000/svg">
<path d="M6.62704 3.5065C7.68288 1.61317 8.21038 0.666504 8.99954 0.666504C9.78871 0.666504 10.3162 1.61317 11.372 3.5065L11.6454 3.9965C11.9454 4.53484 12.0954 4.804 12.3287 4.9815C12.562 5.159 12.8537 5.22484 13.437 5.3565L13.967 5.4765C16.017 5.94067 17.0412 6.17234 17.2854 6.9565C17.5287 7.73984 16.8304 8.55734 15.4329 10.1915L15.0712 10.614C14.6745 11.0782 14.4754 11.3107 14.3862 11.5973C14.297 11.8848 14.327 12.1948 14.387 12.814L14.442 13.3782C14.6529 15.559 14.7587 16.649 14.1204 17.1332C13.482 17.6182 12.522 17.1757 10.6037 16.2923L10.1062 16.064C9.56121 15.8123 9.28871 15.6873 8.99954 15.6873C8.71038 15.6873 8.43788 15.8123 7.89204 16.064L7.39621 16.2923C5.47704 17.1757 4.51704 17.6173 3.87954 17.134C3.24038 16.649 3.34621 15.559 3.55704 13.3782L3.61204 12.8148C3.67204 12.1948 3.70204 11.8848 3.61204 11.5982C3.52371 11.3107 3.32454 11.0782 2.92788 10.6148L2.56621 10.1915C1.16871 8.55817 0.470378 7.74067 0.713711 6.9565C0.957878 6.17234 1.98288 5.93984 4.03288 5.4765L4.56288 5.3565C5.14538 5.22484 5.43621 5.159 5.67038 4.9815C5.90371 4.804 6.05371 4.53484 6.35371 3.9965L6.62704 3.5065Z" fill="#FFC107"/>
</svg>
