<svg width="27" height="24" viewBox="0 0 27 24" fill="none" xmlns="http://www.w3.org/2000/svg">
<path d="M10.6778 22.7879L4.88313e-07 12.0546L10.6778 1.32125C10.7742 1.19462 10.8967 1.09018 11.037 1.01501C11.1773 0.939837 11.3322 0.89569 11.491 0.885555C11.6499 0.87542 11.809 0.899534 11.9578 0.956264C12.1065 1.01299 12.2413 1.10101 12.353 1.21437C12.4648 1.32772 12.5509 1.46376 12.6055 1.61328C12.6601 1.7628 12.6819 1.9223 12.6695 2.08099C12.6571 2.23968 12.6107 2.39386 12.5336 2.53307C12.4564 2.67229 12.3502 2.79331 12.2222 2.88792L4.23333 10.9435L25.4889 10.9435C25.7836 10.9435 26.0662 11.0605 26.2746 11.2689C26.4829 11.4773 26.6 11.7599 26.6 12.0546C26.6 12.3493 26.4829 12.6319 26.2746 12.8403C26.0662 13.0486 25.7836 13.1657 25.4889 13.1657L4.23333 13.1657L12.2222 21.2213C12.43 21.4305 12.5461 21.7137 12.5451 22.0085C12.544 22.3034 12.4259 22.5857 12.2167 22.7935C12.0074 23.0012 11.7243 23.1174 11.4294 23.1163C11.1346 23.1153 10.8522 22.9971 10.6444 22.7879L10.6778 22.7879Z" fill="#FFF26C"/>
</svg>
