<svg width="27" height="24" viewBox="0 0 27 24" fill="none" xmlns="http://www.w3.org/2000/svg">
<path d="M15.9223 22.7879L26.6001 12.0546L15.9223 1.32125C15.8259 1.19462 15.7034 1.09018 15.5631 1.01501C15.4228 0.939837 15.2679 0.89569 15.1091 0.885555C14.9502 0.87542 14.7911 0.899534 14.6423 0.956264C14.4936 1.01299 14.3588 1.10101 14.2471 1.21437C14.1353 1.32772 14.0492 1.46376 13.9946 1.61328C13.94 1.7628 13.9182 1.9223 13.9306 2.08099C13.943 2.23968 13.9894 2.39386 14.0665 2.53307C14.1437 2.67229 14.2499 2.79331 14.3779 2.88792L22.3668 10.9435L1.11121 10.9435C0.816524 10.9435 0.53391 11.0605 0.325536 11.2689C0.117162 11.4773 9.87067e-05 11.7599 9.86938e-05 12.0546C9.86809e-05 12.3493 0.117162 12.6319 0.325536 12.8403C0.53391 13.0486 0.816524 13.1657 1.11121 13.1657L22.3668 13.1657L14.3779 21.2213C14.1701 21.4305 14.054 21.7137 14.055 22.0085C14.0561 22.3034 14.1742 22.5857 14.3834 22.7935C14.5927 23.0012 14.8758 23.1174 15.1707 23.1163C15.4655 23.1153 15.7479 22.9971 15.9557 22.7879L15.9223 22.7879Z" fill="#1F190D"/>
</svg>
