<svg width="40" height="41" viewBox="0 0 40 41" fill="none" xmlns="http://www.w3.org/2000/svg">
<path d="M22.6557 31.0174L33.3335 20.2841L22.6557 9.55075C22.5593 9.42411 22.4368 9.31967 22.2965 9.2445C22.1562 9.16933 22.0013 9.12518 21.8425 9.11505C21.6836 9.10491 21.5245 9.12903 21.3757 9.18576C21.227 9.24249 21.0922 9.33051 20.9805 9.44386C20.8687 9.55722 20.7826 9.69326 20.728 9.84277C20.6734 9.99229 20.6516 10.1518 20.664 10.3105C20.6764 10.4692 20.7228 10.6233 20.7999 10.7626C20.8771 10.9018 20.9833 11.0228 21.1113 11.1174L29.1002 19.173L7.84461 19.173C7.54992 19.173 7.26731 19.29 7.05893 19.4984C6.85056 19.7068 6.7335 19.9894 6.7335 20.2841C6.7335 20.5788 6.85056 20.8614 7.05893 21.0698C7.26731 21.2781 7.54992 21.3952 7.84461 21.3952L29.1002 21.3952L21.1113 29.4507C20.9035 29.66 20.7874 29.9432 20.7884 30.238C20.7895 30.5329 20.9076 30.8152 21.1168 31.023C21.3261 31.2307 21.6092 31.3469 21.9041 31.3458C22.1989 31.3448 22.4813 31.2266 22.6891 31.0174L22.6557 31.0174Z" fill="#1F190D"/>
</svg>
