<svg aria-hidden="true" xmlns="http://www.w3.org/2000/svg" xmlns:xlink="http://www.w3.org/1999/xlink"><symbol viewBox="0 0 27 24" fill="none" id="icon-arrow-line-next" xmlns="http://www.w3.org/2000/svg">
<path d="M15.9223 22.7879L26.6001 12.0546L15.9223 1.32125C15.8259 1.19462 15.7034 1.09018 15.5631 1.01501C15.4228 0.939837 15.2679 0.89569 15.1091 0.885555C14.9502 0.87542 14.7911 0.899534 14.6423 0.956264C14.4936 1.01299 14.3588 1.10101 14.2471 1.21437C14.1353 1.32772 14.0492 1.46376 13.9946 1.61328C13.94 1.7628 13.9182 1.9223 13.9306 2.08099C13.943 2.23968 13.9894 2.39386 14.0665 2.53307C14.1437 2.67229 14.2499 2.79331 14.3779 2.88792L22.3668 10.9435L1.11121 10.9435C0.816524 10.9435 0.53391 11.0605 0.325536 11.2689C0.117162 11.4773 9.87067e-05 11.7599 9.86938e-05 12.0546C9.86809e-05 12.3493 0.117162 12.6319 0.325536 12.8403C0.53391 13.0486 0.816524 13.1657 1.11121 13.1657L22.3668 13.1657L14.3779 21.2213C14.1701 21.4305 14.054 21.7137 14.055 22.0085C14.0561 22.3034 14.1742 22.5857 14.3834 22.7935C14.5927 23.0012 14.8758 23.1174 15.1707 23.1163C15.4655 23.1153 15.7479 22.9971 15.9557 22.7879L15.9223 22.7879Z" fill="currentColor"/>
</symbol><symbol viewBox="0 0 27 24" fill="none" id="icon-arrow-line-prev" xmlns="http://www.w3.org/2000/svg">
<path d="M10.6778 22.7879L4.88313e-07 12.0546L10.6778 1.32125C10.7742 1.19462 10.8967 1.09018 11.037 1.01501C11.1773 0.939837 11.3322 0.89569 11.491 0.885555C11.6499 0.87542 11.809 0.899534 11.9578 0.956264C12.1065 1.01299 12.2413 1.10101 12.353 1.21437C12.4648 1.32772 12.5509 1.46376 12.6055 1.61328C12.6601 1.7628 12.6819 1.9223 12.6695 2.08099C12.6571 2.23968 12.6107 2.39386 12.5336 2.53307C12.4564 2.67229 12.3502 2.79331 12.2222 2.88792L4.23333 10.9435L25.4889 10.9435C25.7836 10.9435 26.0662 11.0605 26.2746 11.2689C26.4829 11.4773 26.6 11.7599 26.6 12.0546C26.6 12.3493 26.4829 12.6319 26.2746 12.8403C26.0662 13.0486 25.7836 13.1657 25.4889 13.1657L4.23333 13.1657L12.2222 21.2213C12.43 21.4305 12.5461 21.7137 12.5451 22.0085C12.544 22.3034 12.4259 22.5857 12.2167 22.7935C12.0074 23.0012 11.7243 23.1174 11.4294 23.1163C11.1346 23.1153 10.8522 22.9971 10.6444 22.7879L10.6778 22.7879Z" fill="currentColor"/>
</symbol><symbol viewBox="0 0 41 41" fill="none" id="icon-arrow-line-up" xmlns="http://www.w3.org/2000/svg">
<g clip-path="url(#cclip0_2009_99)">
<path d="M31.0174 17.6287L20.2841 6.95093L9.55075 17.6287C9.42411 17.7251 9.31967 17.8477 9.2445 17.988C9.16933 18.1283 9.12518 18.2831 9.11505 18.4419C9.10491 18.6008 9.12903 18.76 9.18576 18.9087C9.24249 19.0574 9.33051 19.1922 9.44386 19.304C9.55722 19.4157 9.69326 19.5018 9.84277 19.5564C9.99229 19.611 10.1518 19.6328 10.3105 19.6204C10.4692 19.608 10.6233 19.5617 10.7626 19.4845C10.9018 19.4073 11.0228 19.3012 11.1174 19.1731L19.173 11.1843V32.4398C19.173 32.7345 19.29 33.0171 19.4984 33.2255C19.7068 33.4339 19.9894 33.5509 20.2841 33.5509C20.5788 33.5509 20.8614 33.4339 21.0698 33.2255C21.2781 33.0171 21.3952 32.7345 21.3952 32.4398V11.1843L29.4507 19.1731C29.66 19.3809 29.9432 19.497 30.238 19.496C30.5329 19.4949 30.8152 19.3768 31.023 19.1676C31.2307 18.9584 31.3469 18.6752 31.3458 18.3803C31.3448 18.0855 31.2266 17.8031 31.0174 17.5954V17.6287Z" fill="currentColor"/>
</g>
<defs>
<clipPath id="cclip0_2009_99">
<rect width="40" height="40" fill="currentColor" transform="translate(0.28418 0.28418)"/>
</clipPath>
</defs>
</symbol><symbol viewBox="0 0 40 41" fill="none" id="icon-arrow-next" xmlns="http://www.w3.org/2000/svg">
<path d="M22.6557 31.0174L33.3335 20.2841L22.6557 9.55075C22.5593 9.42411 22.4368 9.31967 22.2965 9.2445C22.1562 9.16933 22.0013 9.12518 21.8425 9.11505C21.6836 9.10491 21.5245 9.12903 21.3757 9.18576C21.227 9.24249 21.0922 9.33051 20.9805 9.44386C20.8687 9.55722 20.7826 9.69326 20.728 9.84277C20.6734 9.99229 20.6516 10.1518 20.664 10.3105C20.6764 10.4692 20.7228 10.6233 20.7999 10.7626C20.8771 10.9018 20.9833 11.0228 21.1113 11.1174L29.1002 19.173L7.84461 19.173C7.54992 19.173 7.26731 19.29 7.05893 19.4984C6.85056 19.7068 6.7335 19.9894 6.7335 20.2841C6.7335 20.5788 6.85056 20.8614 7.05893 21.0698C7.26731 21.2781 7.54992 21.3952 7.84461 21.3952L29.1002 21.3952L21.1113 29.4507C20.9035 29.66 20.7874 29.9432 20.7884 30.238C20.7895 30.5329 20.9076 30.8152 21.1168 31.023C21.3261 31.2307 21.6092 31.3469 21.9041 31.3458C22.1989 31.3448 22.4813 31.2266 22.6891 31.0174L22.6557 31.0174Z" fill="currentColor"/>
</symbol><symbol viewBox="0 0 40 41" fill="none" id="icon-arrow-prev" xmlns="http://www.w3.org/2000/svg">
<path d="M17.3443 31.0174L6.6665 20.2841L17.3443 9.55075C17.4407 9.42411 17.5632 9.31967 17.7035 9.2445C17.8438 9.16933 17.9987 9.12518 18.1575 9.11505C18.3164 9.10491 18.4755 9.12903 18.6243 9.18576C18.773 9.24249 18.9078 9.33051 19.0195 9.44386C19.1313 9.55722 19.2174 9.69326 19.272 9.84277C19.3266 9.99229 19.3484 10.1518 19.336 10.3105C19.3236 10.4692 19.2772 10.6233 19.2001 10.7626C19.1229 10.9018 19.0167 11.0228 18.8887 11.1174L10.8998 19.173L32.1554 19.173C32.4501 19.173 32.7327 19.29 32.9411 19.4984C33.1494 19.7068 33.2665 19.9894 33.2665 20.2841C33.2665 20.5788 33.1494 20.8614 32.9411 21.0698C32.7327 21.2781 32.4501 21.3952 32.1554 21.3952L10.8998 21.3952L18.8887 29.4507C19.0965 29.66 19.2126 29.9432 19.2116 30.238C19.2105 30.5329 19.0924 30.8152 18.8832 31.023C18.6739 31.2307 18.3908 31.3469 18.0959 31.3458C17.8011 31.3448 17.5187 31.2266 17.3109 31.0174L17.3443 31.0174Z" fill="currentColor"/>
</symbol><symbol viewBox="0 0 32 32" fill="none" id="icon-burger" xmlns="http://www.w3.org/2000/svg">
<path d="M28 16C28 16.2652 27.8946 16.5196 27.7071 16.7071C27.5196 16.8946 27.2652 17 27 17H5C4.73478 17 4.48043 16.8946 4.29289 16.7071C4.10536 16.5196 4 16.2652 4 16C4 15.7348 4.10536 15.4804 4.29289 15.2929C4.48043 15.1054 4.73478 15 5 15H27C27.2652 15 27.5196 15.1054 27.7071 15.2929C27.8946 15.4804 28 15.7348 28 16ZM5 9H27C27.2652 9 27.5196 8.89464 27.7071 8.70711C27.8946 8.51957 28 8.26522 28 8C28 7.73478 27.8946 7.48043 27.7071 7.29289C27.5196 7.10536 27.2652 7 27 7H5C4.73478 7 4.48043 7.10536 4.29289 7.29289C4.10536 7.48043 4 7.73478 4 8C4 8.26522 4.10536 8.51957 4.29289 8.70711C4.48043 8.89464 4.73478 9 5 9ZM27 23H5C4.73478 23 4.48043 23.1054 4.29289 23.2929C4.10536 23.4804 4 23.7348 4 24C4 24.2652 4.10536 24.5196 4.29289 24.7071C4.48043 24.8946 4.73478 25 5 25H27C27.2652 25 27.5196 24.8946 27.7071 24.7071C27.8946 24.5196 28 24.2652 28 24C28 23.7348 27.8946 23.4804 27.7071 23.2929C27.5196 23.1054 27.2652 23 27 23Z" fill="currentColor"/>
</symbol><symbol viewBox="0 0 24 24" fill="none" id="icon-close" xmlns="http://www.w3.org/2000/svg">
<path d="M19.9999 19.9999L12 12M12 12L4 4M12 12L20 4M12 12L4 20" stroke="currentColor" stroke-width="2" stroke-linecap="round" stroke-linejoin="round"/>
</symbol><symbol viewBox="0 0 24 24" fill="none" id="icon-location" xmlns="http://www.w3.org/2000/svg">
<path d="M12 6C11.2583 6 10.5333 6.21993 9.91661 6.63199C9.29993 7.04404 8.81928 7.62971 8.53545 8.31494C8.25162 9.00016 8.17736 9.75416 8.32205 10.4816C8.46675 11.209 8.8239 11.8772 9.34835 12.4017C9.8728 12.9261 10.541 13.2833 11.2684 13.4279C11.9958 13.5726 12.7498 13.4984 13.4351 13.2145C14.1203 12.9307 14.706 12.4501 15.118 11.8334C15.5301 11.2167 15.75 10.4917 15.75 9.75C15.75 8.75544 15.3549 7.80161 14.6517 7.09835C13.9484 6.39509 12.9946 6 12 6ZM12 12C11.555 12 11.12 11.868 10.75 11.6208C10.38 11.3736 10.0916 11.0222 9.92127 10.611C9.75097 10.1999 9.70642 9.7475 9.79323 9.31105C9.88005 8.87459 10.0943 8.47368 10.409 8.15901C10.7237 7.84434 11.1246 7.63005 11.561 7.54323C11.9975 7.45642 12.4499 7.50097 12.861 7.67127C13.2722 7.84157 13.6236 8.12996 13.8708 8.49997C14.118 8.86998 14.25 9.30499 14.25 9.75C14.25 10.3467 14.0129 10.919 13.591 11.341C13.169 11.7629 12.5967 12 12 12ZM12 1.5C9.81273 1.50248 7.71575 2.37247 6.16911 3.91911C4.62247 5.46575 3.75248 7.56273 3.75 9.75C3.75 12.6938 5.11031 15.8138 7.6875 18.7734C8.84552 20.1108 10.1489 21.3151 11.5734 22.3641C11.6995 22.4524 11.8498 22.4998 12.0037 22.4998C12.1577 22.4998 12.308 22.4524 12.4341 22.3641C13.856 21.3147 15.1568 20.1104 16.3125 18.7734C18.8859 15.8138 20.25 12.6938 20.25 9.75C20.2475 7.56273 19.3775 5.46575 17.8309 3.91911C16.2843 2.37247 14.1873 1.50248 12 1.5ZM12 20.8125C10.4503 19.5938 5.25 15.1172 5.25 9.75C5.25 7.95979 5.96116 6.2429 7.22703 4.97703C8.4929 3.71116 10.2098 3 12 3C13.7902 3 15.5071 3.71116 16.773 4.97703C18.0388 6.2429 18.75 7.95979 18.75 9.75C18.75 15.1153 13.5497 19.5938 12 20.8125Z" fill="currentColor"/>
</symbol><symbol viewBox="0 0 32 32" fill="none" id="icon-play" xmlns="http://www.w3.org/2000/svg">
<path d="M28.5453 12.4704C29.1856 12.811 29.7213 13.3193 30.0949 13.9411C30.4684 14.5628 30.6658 15.2744 30.6658 15.9998C30.6658 16.7251 30.4684 17.4367 30.0949 18.0584C29.7213 18.6802 29.1856 19.1885 28.5453 19.5291L11.4626 28.8184C8.71192 30.3158 5.33325 28.3691 5.33325 25.2904V6.71043C5.33325 3.63043 8.71192 1.68509 11.4626 3.17976L28.5453 12.4704Z" fill="currentColor"/>
</symbol><symbol viewBox="0 0 16 16" fill="none" id="icon-plus" xmlns="http://www.w3.org/2000/svg">
<path d="M8.00016 3.3335V12.6668M3.3335 8.00016H12.6668" stroke="currentColor" stroke-linecap="round" stroke-linejoin="round"/>
</symbol><symbol viewBox="0 0 24 24" fill="none" id="icon-profile" xmlns="http://www.w3.org/2000/svg">
<path d="M12 10C12.4596 10 12.9148 9.90947 13.3394 9.73358C13.764 9.55769 14.1499 9.29988 14.4749 8.97487C14.7999 8.64987 15.0577 8.26403 15.2336 7.83939C15.4095 7.41475 15.5 6.95963 15.5 6.5C15.5 6.04037 15.4095 5.58525 15.2336 5.16061C15.0577 4.73597 14.7999 4.35013 14.4749 4.02513C14.1499 3.70012 13.764 3.44231 13.3394 3.26642C12.9148 3.09053 12.4596 3 12 3C11.0717 3 10.1815 3.36875 9.52513 4.02513C8.86875 4.6815 8.5 5.57174 8.5 6.5C8.5 7.42826 8.86875 8.3185 9.52513 8.97487C10.1815 9.63125 11.0717 10 12 10ZM3 20.4V21H21V20.4C21 18.16 21 17.04 20.564 16.184C20.1805 15.4314 19.5686 14.8195 18.816 14.436C17.96 14 16.84 14 14.6 14H9.4C7.16 14 6.04 14 5.184 14.436C4.43139 14.8195 3.81949 15.4314 3.436 16.184C3 17.04 3 18.16 3 20.4Z" stroke="currentColor" stroke-width="2" stroke-linecap="round" stroke-linejoin="round"/>
</symbol><symbol viewBox="0 0 18 18" fill="none" id="icon-star" xmlns="http://www.w3.org/2000/svg">
<path d="M6.62704 3.5065C7.68288 1.61317 8.21038 0.666504 8.99954 0.666504C9.78871 0.666504 10.3162 1.61317 11.372 3.5065L11.6454 3.9965C11.9454 4.53484 12.0954 4.804 12.3287 4.9815C12.562 5.159 12.8537 5.22484 13.437 5.3565L13.967 5.4765C16.017 5.94067 17.0412 6.17234 17.2854 6.9565C17.5287 7.73984 16.8304 8.55734 15.4329 10.1915L15.0712 10.614C14.6745 11.0782 14.4754 11.3107 14.3862 11.5973C14.297 11.8848 14.327 12.1948 14.387 12.814L14.442 13.3782C14.6529 15.559 14.7587 16.649 14.1204 17.1332C13.482 17.6182 12.522 17.1757 10.6037 16.2923L10.1062 16.064C9.56121 15.8123 9.28871 15.6873 8.99954 15.6873C8.71038 15.6873 8.43788 15.8123 7.89204 16.064L7.39621 16.2923C5.47704 17.1757 4.51704 17.6173 3.87954 17.134C3.24038 16.649 3.34621 15.559 3.55704 13.3782L3.61204 12.8148C3.67204 12.1948 3.70204 11.8848 3.61204 11.5982C3.52371 11.3107 3.32454 11.0782 2.92788 10.6148L2.56621 10.1915C1.16871 8.55817 0.470378 7.74067 0.713711 6.9565C0.957878 6.17234 1.98288 5.93984 4.03288 5.4765L4.56288 5.3565C5.14538 5.22484 5.43621 5.159 5.67038 4.9815C5.90371 4.804 6.05371 4.53484 6.35371 3.9965L6.62704 3.5065Z" fill="currentColor"/>
</symbol><symbol viewBox="0 0 24 24" fill="none" id="icon-tel" xmlns="http://www.w3.org/2000/svg">
<path d="M15.6 14.522C13.205 17.042 7.09603 10.988 9.50003 8.45801C10.968 6.91301 9.31003 5.14801 8.39203 3.84901C6.66903 1.41401 2.88803 4.77601 3.00203 6.91501C3.36503 13.661 10.662 21.655 17.728 20.957C19.938 20.739 22.478 16.747 19.943 15.288C18.675 14.558 16.934 13.118 15.6 14.521" stroke="currentColor" stroke-width="1.5" stroke-linecap="round" stroke-linejoin="round"/>
</symbol></svg>