<svg aria-hidden="true" xmlns="http://www.w3.org/2000/svg" xmlns:xlink="http://www.w3.org/1999/xlink"><symbol viewBox="0 0 41 41" fill="none" id="icon-arrow-line-up" xmlns="http://www.w3.org/2000/svg">
<g clip-path="url(#aclip0_2009_99)">
<path d="M31.0174 17.6287L20.2841 6.95093L9.55075 17.6287C9.42411 17.7251 9.31967 17.8477 9.2445 17.988C9.16933 18.1283 9.12518 18.2831 9.11505 18.4419C9.10491 18.6008 9.12903 18.76 9.18576 18.9087C9.24249 19.0574 9.33051 19.1922 9.44386 19.304C9.55722 19.4157 9.69326 19.5018 9.84277 19.5564C9.99229 19.611 10.1518 19.6328 10.3105 19.6204C10.4692 19.608 10.6233 19.5617 10.7626 19.4845C10.9018 19.4073 11.0228 19.3012 11.1174 19.1731L19.173 11.1843V32.4398C19.173 32.7345 19.29 33.0171 19.4984 33.2255C19.7068 33.4339 19.9894 33.5509 20.2841 33.5509C20.5788 33.5509 20.8614 33.4339 21.0698 33.2255C21.2781 33.0171 21.3952 32.7345 21.3952 32.4398V11.1843L29.4507 19.1731C29.66 19.3809 29.9432 19.497 30.238 19.496C30.5329 19.4949 30.8152 19.3768 31.023 19.1676C31.2307 18.9584 31.3469 18.6752 31.3458 18.3803C31.3448 18.0855 31.2266 17.8031 31.0174 17.5954V17.6287Z" fill="currentColor"/>
</g>
<defs>
<clipPath id="aclip0_2009_99">
<rect width="40" height="40" fill="currentColor" transform="translate(0.28418 0.28418)"/>
</clipPath>
</defs>
</symbol><symbol viewBox="0 0 32 32" fill="none" id="icon-burger" xmlns="http://www.w3.org/2000/svg">
<path d="M28 16C28 16.2652 27.8946 16.5196 27.7071 16.7071C27.5196 16.8946 27.2652 17 27 17H5C4.73478 17 4.48043 16.8946 4.29289 16.7071C4.10536 16.5196 4 16.2652 4 16C4 15.7348 4.10536 15.4804 4.29289 15.2929C4.48043 15.1054 4.73478 15 5 15H27C27.2652 15 27.5196 15.1054 27.7071 15.2929C27.8946 15.4804 28 15.7348 28 16ZM5 9H27C27.2652 9 27.5196 8.89464 27.7071 8.70711C27.8946 8.51957 28 8.26522 28 8C28 7.73478 27.8946 7.48043 27.7071 7.29289C27.5196 7.10536 27.2652 7 27 7H5C4.73478 7 4.48043 7.10536 4.29289 7.29289C4.10536 7.48043 4 7.73478 4 8C4 8.26522 4.10536 8.51957 4.29289 8.70711C4.48043 8.89464 4.73478 9 5 9ZM27 23H5C4.73478 23 4.48043 23.1054 4.29289 23.2929C4.10536 23.4804 4 23.7348 4 24C4 24.2652 4.10536 24.5196 4.29289 24.7071C4.48043 24.8946 4.73478 25 5 25H27C27.2652 25 27.5196 24.8946 27.7071 24.7071C27.8946 24.5196 28 24.2652 28 24C28 23.7348 27.8946 23.4804 27.7071 23.2929C27.5196 23.1054 27.2652 23 27 23Z" fill="currentColor"/>
</symbol><symbol viewBox="0 0 24 24" fill="none" id="icon-close" xmlns="http://www.w3.org/2000/svg">
<path d="M19.9999 19.9999L12 12M12 12L4 4M12 12L20 4M12 12L4 20" stroke="currentColor" stroke-width="2" stroke-linecap="round" stroke-linejoin="round"/>
</symbol><symbol viewBox="0 0 24 24" fill="none" id="icon-location" xmlns="http://www.w3.org/2000/svg">
<path d="M12 6C11.2583 6 10.5333 6.21993 9.91661 6.63199C9.29993 7.04404 8.81928 7.62971 8.53545 8.31494C8.25162 9.00016 8.17736 9.75416 8.32205 10.4816C8.46675 11.209 8.8239 11.8772 9.34835 12.4017C9.8728 12.9261 10.541 13.2833 11.2684 13.4279C11.9958 13.5726 12.7498 13.4984 13.4351 13.2145C14.1203 12.9307 14.706 12.4501 15.118 11.8334C15.5301 11.2167 15.75 10.4917 15.75 9.75C15.75 8.75544 15.3549 7.80161 14.6517 7.09835C13.9484 6.39509 12.9946 6 12 6ZM12 12C11.555 12 11.12 11.868 10.75 11.6208C10.38 11.3736 10.0916 11.0222 9.92127 10.611C9.75097 10.1999 9.70642 9.7475 9.79323 9.31105C9.88005 8.87459 10.0943 8.47368 10.409 8.15901C10.7237 7.84434 11.1246 7.63005 11.561 7.54323C11.9975 7.45642 12.4499 7.50097 12.861 7.67127C13.2722 7.84157 13.6236 8.12996 13.8708 8.49997C14.118 8.86998 14.25 9.30499 14.25 9.75C14.25 10.3467 14.0129 10.919 13.591 11.341C13.169 11.7629 12.5967 12 12 12ZM12 1.5C9.81273 1.50248 7.71575 2.37247 6.16911 3.91911C4.62247 5.46575 3.75248 7.56273 3.75 9.75C3.75 12.6938 5.11031 15.8138 7.6875 18.7734C8.84552 20.1108 10.1489 21.3151 11.5734 22.3641C11.6995 22.4524 11.8498 22.4998 12.0037 22.4998C12.1577 22.4998 12.308 22.4524 12.4341 22.3641C13.856 21.3147 15.1568 20.1104 16.3125 18.7734C18.8859 15.8138 20.25 12.6938 20.25 9.75C20.2475 7.56273 19.3775 5.46575 17.8309 3.91911C16.2843 2.37247 14.1873 1.50248 12 1.5ZM12 20.8125C10.4503 19.5938 5.25 15.1172 5.25 9.75C5.25 7.95979 5.96116 6.2429 7.22703 4.97703C8.4929 3.71116 10.2098 3 12 3C13.7902 3 15.5071 3.71116 16.773 4.97703C18.0388 6.2429 18.75 7.95979 18.75 9.75C18.75 15.1153 13.5497 19.5938 12 20.8125Z" fill="currentColor"/>
</symbol><symbol viewBox="0 0 24 24" fill="none" id="icon-profile" xmlns="http://www.w3.org/2000/svg">
<path d="M12 10C12.4596 10 12.9148 9.90947 13.3394 9.73358C13.764 9.55769 14.1499 9.29988 14.4749 8.97487C14.7999 8.64987 15.0577 8.26403 15.2336 7.83939C15.4095 7.41475 15.5 6.95963 15.5 6.5C15.5 6.04037 15.4095 5.58525 15.2336 5.16061C15.0577 4.73597 14.7999 4.35013 14.4749 4.02513C14.1499 3.70012 13.764 3.44231 13.3394 3.26642C12.9148 3.09053 12.4596 3 12 3C11.0717 3 10.1815 3.36875 9.52513 4.02513C8.86875 4.6815 8.5 5.57174 8.5 6.5C8.5 7.42826 8.86875 8.3185 9.52513 8.97487C10.1815 9.63125 11.0717 10 12 10ZM3 20.4V21H21V20.4C21 18.16 21 17.04 20.564 16.184C20.1805 15.4314 19.5686 14.8195 18.816 14.436C17.96 14 16.84 14 14.6 14H9.4C7.16 14 6.04 14 5.184 14.436C4.43139 14.8195 3.81949 15.4314 3.436 16.184C3 17.04 3 18.16 3 20.4Z" stroke="currentColor" stroke-width="2" stroke-linecap="round" stroke-linejoin="round"/>
</symbol><symbol viewBox="0 0 24 24" fill="none" id="icon-tel" xmlns="http://www.w3.org/2000/svg">
<path d="M15.6 14.522C13.205 17.042 7.09603 10.988 9.50003 8.45801C10.968 6.91301 9.31003 5.14801 8.39203 3.84901C6.66903 1.41401 2.88803 4.77601 3.00203 6.91501C3.36503 13.661 10.662 21.655 17.728 20.957C19.938 20.739 22.478 16.747 19.943 15.288C18.675 14.558 16.934 13.118 15.6 14.521" stroke="currentColor" stroke-width="1.5" stroke-linecap="round" stroke-linejoin="round"/>
</symbol></svg>