<svg width="136" height="80" viewBox="0 0 136 80" fill="none" xmlns="http://www.w3.org/2000/svg">
<path d="M14.0891 79.9068V76.9585H10.7481H7.89286H3.13157V3.10354H132.868V60.2974H136V0H0V79.9068H14.0891Z" fill="white"/>
<path d="M17 54.0904V3.10352H19.6842V54.0904L25.0527 58.524V67.3913H11.6316V58.524L17 54.0904Z" fill="white"/>
<path d="M32.658 35.469V0H35.342V35.469L40.7106 39.9026V48.7701H27.2894V39.9026L32.658 35.469Z" fill="white"/>
<path d="M47.3571 56.4997V45.7173H52.0746C52.9033 45.7173 53.5993 45.8279 54.1623 46.0491C54.7289 46.2702 55.1556 46.5825 55.4425 46.9861C55.733 47.3897 55.8782 47.8654 55.8782 48.4128C55.8782 48.8096 55.7897 49.171 55.6126 49.4975C55.4391 49.8239 55.1946 50.0977 54.8795 50.3188C54.5642 50.5364 54.196 50.6873 53.7745 50.7716V50.8768C54.242 50.8943 54.667 51.012 55.0495 51.2295C55.432 51.4436 55.7365 51.7402 55.9633 52.1192C56.1898 52.4949 56.3031 52.9371 56.3031 53.446C56.3031 54.0357 56.1474 54.5605 55.8358 55.0202C55.5276 55.48 55.0884 55.8415 54.5182 56.1047C53.9481 56.3681 53.2681 56.4997 52.4784 56.4997H47.3571ZM50.3109 54.1621H51.6921C52.1879 54.1621 52.5598 54.0707 52.8077 53.8882C53.0556 53.7023 53.1796 53.4285 53.1796 53.0669C53.1796 52.8142 53.1212 52.6001 53.0042 52.4247C52.8873 52.2492 52.721 52.1158 52.5048 52.0245C52.2924 51.9333 52.0356 51.8876 51.7345 51.8876H50.3109V54.1621ZM50.3109 50.0766H51.5222C51.7806 50.0766 52.009 50.0362 52.2074 49.9555C52.4057 49.8748 52.5598 49.7589 52.6696 49.608C52.7829 49.4537 52.8396 49.2657 52.8396 49.0446C52.8396 48.7112 52.7192 48.4567 52.4784 48.2812C52.2374 48.1024 51.9329 48.0128 51.5646 48.0128H50.3109V50.0766ZM64.6638 56.4997H61.4763L65.0674 45.7173H69.1049L72.696 56.4997H69.5085L67.1287 48.6867H67.0436L64.6638 56.4997ZM64.0687 52.2456H70.0612V54.4359H64.0687V52.2456ZM78.2742 56.4997V54.8782L83.4166 48.076H78.2955V45.7173H87.1778V47.3388L82.0354 54.1409H87.1565V56.4997H78.2742ZM95.9327 56.4997H92.7453L96.3365 45.7173H100.374L103.965 56.4997H100.778L98.3976 48.6867H98.3128L95.9327 56.4997ZM95.3377 52.2456H101.33V54.4359H95.3377V52.2456ZM121.155 56.4997H116.969V45.7173H121.112C122.232 45.7173 123.198 45.9332 124.013 46.365C124.831 46.7931 125.462 47.4108 125.904 48.2181C126.35 49.0219 126.573 49.9853 126.573 51.1084C126.573 52.2317 126.352 53.1969 125.909 54.0041C125.467 54.8079 124.84 55.4256 124.029 55.8572C123.218 56.2856 122.26 56.4997 121.155 56.4997ZM119.922 54.0146H121.049C121.587 54.0146 122.046 53.9287 122.425 53.7566C122.807 53.5846 123.098 53.288 123.296 52.8669C123.498 52.4458 123.599 51.8597 123.599 51.1084C123.599 50.3573 123.496 49.7712 123.29 49.35C123.089 48.9289 122.791 48.6323 122.398 48.4603C122.009 48.2883 121.53 48.2024 120.964 48.2024H119.922V54.0146Z" fill="white"/>
<path d="M80.8421 71.7699V67.457H83.4513V67.9204H81.3689V69.3777H83.2558V69.8409H81.3689V71.7699H80.8421ZM88.5862 67.457H89.1132V70.3127C89.1132 70.6075 89.043 70.8707 88.9029 71.1025C88.764 71.3326 88.5677 71.5145 88.3141 71.6477C88.0605 71.7797 87.7631 71.8457 87.4216 71.8457C87.0803 71.8457 86.7827 71.7797 86.5291 71.6477C86.2756 71.5145 86.0788 71.3326 85.9385 71.1025C85.7997 70.8707 85.7302 70.6075 85.7302 70.3127V67.457H86.2573V70.2705C86.2573 70.4811 86.304 70.6685 86.3974 70.8328C86.491 70.9956 86.6241 71.1242 86.7969 71.2182C86.9711 71.3109 87.1794 71.3572 87.4216 71.3572C87.664 71.3572 87.8721 71.3109 88.0465 71.2182C88.2207 71.1242 88.3539 70.9956 88.4459 70.8328C88.5395 70.6685 88.5862 70.4811 88.5862 70.2705V67.457ZM91.5418 71.7699V67.457H93.0123C93.3523 67.457 93.6313 67.5146 93.8495 67.6297C94.0676 67.7433 94.2292 67.9001 94.3339 68.0993C94.4389 68.2987 94.4913 68.5254 94.4913 68.7796C94.4913 69.0337 94.4389 69.259 94.3339 69.4556C94.2292 69.6522 94.0684 69.8065 93.8515 69.9188C93.6349 70.0298 93.358 70.0852 93.0208 70.0852H91.8309V69.6135H93.0037C93.236 69.6135 93.4232 69.5797 93.5647 69.5123C93.7078 69.4449 93.8111 69.3496 93.8749 69.226C93.9401 69.1011 93.9727 68.9522 93.9727 68.7796C93.9727 68.6069 93.9401 68.456 93.8749 68.3268C93.8097 68.1977 93.7058 68.0979 93.5626 68.0276C93.4195 67.9562 93.2305 67.9204 92.9952 67.9204H92.0688V71.7699H91.5418ZM93.5903 69.8325L94.6612 71.7699H94.0493L92.9952 69.8325H93.5903ZM100.197 67.457V71.7699H99.6866L97.3151 68.3836H97.2727V71.7699H96.7456V67.457H97.2556L99.6355 70.8518H99.6781V67.457H100.197ZM103.154 67.457V71.7699H102.627V67.457H103.154ZM105.349 67.9204V67.457H108.613V67.9204H107.245V71.7699H106.718V67.9204H105.349ZM113.659 67.457H114.186V70.3127C114.186 70.6075 114.115 70.8707 113.975 71.1025C113.836 71.3326 113.64 71.5145 113.387 71.6477C113.133 71.7797 112.836 71.8457 112.494 71.8457C112.153 71.8457 111.855 71.7797 111.602 71.6477C111.348 71.5145 111.151 71.3326 111.011 71.1025C110.872 70.8707 110.803 70.6075 110.803 70.3127V67.457H111.33V70.2705C111.33 70.4811 111.376 70.6685 111.47 70.8328C111.563 70.9956 111.697 71.1242 111.869 71.2182C112.044 71.3109 112.252 71.3572 112.494 71.3572C112.736 71.3572 112.945 71.3109 113.119 71.2182C113.293 71.1242 113.426 70.9956 113.518 70.8328C113.612 70.6685 113.659 70.4811 113.659 70.2705V67.457ZM116.614 71.7699V67.457H118.085C118.425 67.457 118.704 67.5146 118.922 67.6297C119.14 67.7433 119.302 67.9001 119.406 68.0993C119.511 68.2987 119.564 68.5254 119.564 68.7796C119.564 69.0337 119.511 69.259 119.406 69.4556C119.302 69.6522 119.141 69.8065 118.924 69.9188C118.707 70.0298 118.43 70.0852 118.093 70.0852H116.903V69.6135H118.076C118.308 69.6135 118.495 69.5797 118.637 69.5123C118.78 69.4449 118.884 69.3496 118.947 69.226C119.013 69.1011 119.045 68.9522 119.045 68.7796C119.045 68.6069 119.013 68.456 118.947 68.3268C118.882 68.1977 118.778 68.0979 118.635 68.0276C118.492 67.9562 118.303 67.9204 118.068 67.9204H117.141V71.7699H116.614ZM118.663 69.8325L119.734 71.7699H119.122L118.068 69.8325H118.663ZM121.818 71.7699V67.457H124.444V67.9204H122.345V69.3777H124.309V69.8409H122.345V71.3067H124.479V71.7699H121.818Z" fill="white"/>
<path d="M61.3945 75.6111H62.0235L63.5025 79.1911H63.5535L65.0325 75.6111H65.6614V79.9241H65.1685V76.6473H65.1259L63.766 79.9241H63.2899L61.9301 76.6473H61.8875V79.9241H61.3945V75.6111ZM68.2727 79.9241H67.7203L69.3183 75.6111H69.8622L71.4602 79.9241H70.9078L69.6072 76.2936H69.5733L68.2727 79.9241ZM68.4768 78.2394H70.7037V78.7026H68.4768V78.2394ZM76.9653 75.6111V79.9241H76.4553L74.0838 76.5378H74.0414V79.9241H73.5144V75.6111H74.0244L76.4042 79.0058H76.4468V75.6111H76.9653ZM82.252 75.6111H82.7789V78.4668C82.7789 78.7616 82.7088 79.0249 82.5686 79.2565C82.4297 79.4867 82.2336 79.6686 81.98 79.802C81.7264 79.934 81.4288 80 81.0875 80C80.746 80 80.4486 79.934 80.195 79.802C79.9414 79.6686 79.7445 79.4867 79.6042 79.2565C79.4654 79.0249 79.3961 78.7616 79.3961 78.4668V75.6111H79.923V78.4247C79.923 78.6352 79.9697 78.8227 80.0633 78.9869C80.1569 79.1499 80.2898 79.2782 80.4628 79.3724C80.637 79.465 80.8453 79.5112 81.0875 79.5112C81.3297 79.5112 81.538 79.465 81.7122 79.3724C81.8864 79.2782 82.0196 79.1499 82.1118 78.9869C82.2051 78.8227 82.252 78.6352 82.252 78.4247V75.6111ZM85.2076 79.9241V75.6111H87.8171V76.0745H85.7345V77.5318H87.6216V77.995H85.7345V79.9241H85.2076ZM89.731 79.9241H89.1784L90.7764 75.6111H91.3203L92.9182 79.9241H92.3658L91.0653 76.2936H91.0313L89.731 79.9241ZM89.9348 78.2394H92.1618V78.7026H89.9348V78.2394ZM98.2697 76.959H97.7429C97.7116 76.8087 97.6572 76.6767 97.5792 76.563C97.5027 76.4493 97.4093 76.3539 97.2987 76.2767C97.1896 76.198 97.0684 76.139 96.9353 76.0998C96.8023 76.0604 96.6634 76.0409 96.5188 76.0409C96.2553 76.0409 96.0166 76.1069 95.8028 76.2386C95.5902 76.3706 95.4209 76.5652 95.2948 76.8221C95.1702 77.0791 95.1078 77.3942 95.1078 77.7676C95.1078 78.141 95.1702 78.4563 95.2948 78.7133C95.4209 78.97 95.5902 79.1646 95.8028 79.2966C96.0166 79.4286 96.2553 79.4946 96.5188 79.4946C96.6634 79.4946 96.8023 79.4748 96.9353 79.4356C97.0684 79.3962 97.1896 79.338 97.2987 79.2607C97.4093 79.1821 97.5027 79.0859 97.5792 78.9722C97.6572 78.8571 97.7116 78.7251 97.7429 78.5762H98.2697C98.2301 78.7968 98.1578 78.9939 98.0531 79.168C97.9483 79.3422 97.818 79.4903 97.6621 79.6125C97.5061 79.7332 97.3313 79.8251 97.1373 79.8883C96.9446 79.9515 96.7385 79.9831 96.5188 79.9831C96.1477 79.9831 95.8176 79.8931 95.5287 79.7135C95.2396 79.5338 95.0122 79.2782 94.8465 78.9469C94.6809 78.6157 94.5979 78.2225 94.5979 77.7676C94.5979 77.3127 94.6809 76.9197 94.8465 76.5883C95.0122 76.257 95.2396 76.0014 95.5287 75.8217C95.8176 75.6421 96.1477 75.5521 96.5188 75.5521C96.7385 75.5521 96.9446 75.5837 97.1373 75.6469C97.3313 75.7101 97.5061 75.8028 97.6621 75.925C97.818 76.0457 97.9483 76.1932 98.0531 76.3672C98.1578 76.5398 98.2301 76.737 98.2697 76.959ZM100.26 76.0745V75.6111H103.524V76.0745H102.155V79.9241H101.628V76.0745H100.26ZM108.569 75.6111H109.096V78.4668C109.096 78.7616 109.026 79.0249 108.886 79.2565C108.747 79.4867 108.551 79.6686 108.297 79.802C108.043 79.934 107.746 80 107.405 80C107.063 80 106.766 79.934 106.512 79.802C106.259 79.6686 106.062 79.4867 105.921 79.2565C105.783 79.0249 105.713 78.7616 105.713 78.4668V75.6111H106.24V78.4247C106.24 78.6352 106.287 78.8227 106.38 78.9869C106.474 79.1499 106.607 79.2782 106.78 79.3724C106.954 79.465 107.162 79.5112 107.405 79.5112C107.647 79.5112 107.855 79.465 108.029 79.3724C108.204 79.2782 108.337 79.1499 108.429 78.9869C108.522 78.8227 108.569 78.6352 108.569 78.4247V75.6111ZM111.525 79.9241V75.6111H112.995C113.335 75.6111 113.614 75.6686 113.832 75.7839C114.051 75.8976 114.212 76.0541 114.317 76.2535C114.422 76.4529 114.474 76.6795 114.474 76.9336C114.474 77.1877 114.422 77.4131 114.317 77.6097C114.212 77.8062 114.051 77.9608 113.834 78.073C113.618 78.1839 113.341 78.2394 113.004 78.2394H111.814V77.7676H112.987C113.219 77.7676 113.406 77.734 113.548 77.6666C113.691 77.5992 113.794 77.5036 113.858 77.3801C113.923 77.2551 113.956 77.1064 113.956 76.9336C113.956 76.761 113.923 76.6101 113.858 76.4809C113.793 76.3517 113.689 76.2521 113.546 76.1819C113.402 76.1103 113.213 76.0745 112.978 76.0745H112.052V79.9241H111.525ZM113.573 77.9867L114.644 79.9241H114.032L112.978 77.9867H113.573ZM116.729 79.9241V75.6111H119.355V76.0745H117.256V77.5318H119.219V77.995H117.256V79.4607H119.389V79.9241H116.729ZM121.681 79.9241V75.6111H123.152C123.492 75.6111 123.771 75.6686 123.989 75.7839C124.207 75.8976 124.368 76.0541 124.473 76.2535C124.578 76.4529 124.631 76.6795 124.631 76.9336C124.631 77.1877 124.578 77.4131 124.473 77.6097C124.368 77.8062 124.208 77.9608 123.991 78.073C123.774 78.1839 123.497 78.2394 123.16 78.2394H121.97V77.7676H123.143C123.375 77.7676 123.562 77.734 123.704 77.6666C123.847 77.5992 123.95 77.5036 124.014 77.3801C124.079 77.2551 124.112 77.1064 124.112 76.9336C124.112 76.761 124.079 76.6101 124.014 76.4809C123.949 76.3517 123.845 76.2521 123.702 76.1819C123.559 76.1103 123.37 76.0745 123.134 76.0745H122.208V79.9241H121.681ZM123.73 77.9867L124.801 79.9241H124.189L123.134 77.9867H123.73Z" fill="white"/>
</svg>
